<mxfile host="app.diagrams.net" agent="Mozilla/5.0 (Windows NT 10.0; Win64; x64) AppleWebKit/537.36 (KHTML, like Gecko) Chrome/135.0.0.0 Safari/537.36" version="26.2.12">
  <diagram id="C5RBs43oDa-KdzZeNtuy" name="Page-1">
    <mxGraphModel dx="1428" dy="777" grid="1" gridSize="10" guides="1" tooltips="1" connect="1" arrows="1" fold="1" page="1" pageScale="1" pageWidth="827" pageHeight="1169" math="0" shadow="0">
      <root>
        <mxCell id="WIyWlLk6GJQsqaUBKTNV-0" />
        <mxCell id="WIyWlLk6GJQsqaUBKTNV-1" parent="WIyWlLk6GJQsqaUBKTNV-0" />
        <mxCell id="WIyWlLk6GJQsqaUBKTNV-2" value="" style="rounded=0;html=1;jettySize=auto;orthogonalLoop=1;fontSize=11;endArrow=block;endFill=0;endSize=8;strokeWidth=1;shadow=0;labelBackgroundColor=none;edgeStyle=orthogonalEdgeStyle;entryX=0.5;entryY=0;entryDx=0;entryDy=0;" parent="WIyWlLk6GJQsqaUBKTNV-1" source="WIyWlLk6GJQsqaUBKTNV-3" target="tKU6dCxfrQ4JnQ1JSD5g-10" edge="1">
          <mxGeometry relative="1" as="geometry">
            <mxPoint x="354" y="170" as="targetPoint" />
          </mxGeometry>
        </mxCell>
        <mxCell id="WIyWlLk6GJQsqaUBKTNV-3" value="Inicio" style="rounded=1;whiteSpace=wrap;html=1;fontSize=12;glass=0;strokeWidth=1;shadow=0;" parent="WIyWlLk6GJQsqaUBKTNV-1" vertex="1">
          <mxGeometry x="294" y="80" width="120" height="40" as="geometry" />
        </mxCell>
        <mxCell id="tKU6dCxfrQ4JnQ1JSD5g-0" value="&lt;font style=&quot;font-size: 20px;&quot;&gt;RESERVAS - DIAGRAMA DE FLUJO&lt;/font&gt;" style="text;html=1;align=center;verticalAlign=middle;resizable=0;points=[];autosize=1;strokeColor=none;fillColor=none;" parent="WIyWlLk6GJQsqaUBKTNV-1" vertex="1">
          <mxGeometry x="174" y="10" width="360" height="40" as="geometry" />
        </mxCell>
        <mxCell id="tKU6dCxfrQ4JnQ1JSD5g-10" value="Crear" style="rounded=1;whiteSpace=wrap;html=1;fontSize=12;glass=0;strokeWidth=1;shadow=0;" parent="WIyWlLk6GJQsqaUBKTNV-1" vertex="1">
          <mxGeometry x="184" y="170" width="120" height="40" as="geometry" />
        </mxCell>
        <mxCell id="tKU6dCxfrQ4JnQ1JSD5g-12" value="" style="rounded=0;html=1;jettySize=auto;orthogonalLoop=1;fontSize=11;endArrow=block;endFill=0;endSize=8;strokeWidth=1;shadow=0;labelBackgroundColor=none;edgeStyle=orthogonalEdgeStyle;entryX=0.5;entryY=0;entryDx=0;entryDy=0;exitX=0.5;exitY=1;exitDx=0;exitDy=0;" parent="WIyWlLk6GJQsqaUBKTNV-1" source="WIyWlLk6GJQsqaUBKTNV-3" target="tKU6dCxfrQ4JnQ1JSD5g-13" edge="1">
          <mxGeometry relative="1" as="geometry">
            <mxPoint x="364" y="130" as="sourcePoint" />
            <mxPoint x="514" y="180" as="targetPoint" />
          </mxGeometry>
        </mxCell>
        <mxCell id="tKU6dCxfrQ4JnQ1JSD5g-13" value="Consultar" style="rounded=1;whiteSpace=wrap;html=1;fontSize=12;glass=0;strokeWidth=1;shadow=0;" parent="WIyWlLk6GJQsqaUBKTNV-1" vertex="1">
          <mxGeometry x="670" y="170" width="120" height="40" as="geometry" />
        </mxCell>
        <mxCell id="tKU6dCxfrQ4JnQ1JSD5g-14" value="Introducir datos" style="rounded=1;whiteSpace=wrap;html=1;fontSize=12;glass=0;strokeWidth=1;shadow=0;" parent="WIyWlLk6GJQsqaUBKTNV-1" vertex="1">
          <mxGeometry x="184" y="240" width="120" height="40" as="geometry" />
        </mxCell>
        <mxCell id="tKU6dCxfrQ4JnQ1JSD5g-16" value="" style="rounded=0;html=1;jettySize=auto;orthogonalLoop=1;fontSize=11;endArrow=block;endFill=0;endSize=8;strokeWidth=1;shadow=0;labelBackgroundColor=none;edgeStyle=orthogonalEdgeStyle;exitX=0.5;exitY=1;exitDx=0;exitDy=0;entryX=0.5;entryY=0;entryDx=0;entryDy=0;" parent="WIyWlLk6GJQsqaUBKTNV-1" source="tKU6dCxfrQ4JnQ1JSD5g-10" edge="1" target="tKU6dCxfrQ4JnQ1JSD5g-14">
          <mxGeometry y="20" relative="1" as="geometry">
            <mxPoint as="offset" />
            <mxPoint x="243.75" y="220" as="sourcePoint" />
            <mxPoint x="243.75" y="260" as="targetPoint" />
          </mxGeometry>
        </mxCell>
        <mxCell id="tKU6dCxfrQ4JnQ1JSD5g-17" value="" style="rounded=0;html=1;jettySize=auto;orthogonalLoop=1;fontSize=11;endArrow=block;endFill=0;endSize=8;strokeWidth=1;shadow=0;labelBackgroundColor=none;edgeStyle=orthogonalEdgeStyle;exitX=0.5;exitY=1;exitDx=0;exitDy=0;entryX=0.5;entryY=0;entryDx=0;entryDy=0;" parent="WIyWlLk6GJQsqaUBKTNV-1" source="tKU6dCxfrQ4JnQ1JSD5g-13" target="tKU6dCxfrQ4JnQ1JSD5g-29" edge="1">
          <mxGeometry y="20" relative="1" as="geometry">
            <mxPoint as="offset" />
            <mxPoint x="740.25" y="220" as="sourcePoint" />
            <mxPoint x="730" y="270" as="targetPoint" />
          </mxGeometry>
        </mxCell>
        <mxCell id="tKU6dCxfrQ4JnQ1JSD5g-19" value="" style="rounded=0;html=1;jettySize=auto;orthogonalLoop=1;fontSize=11;endArrow=block;endFill=0;endSize=8;strokeWidth=1;shadow=0;labelBackgroundColor=none;edgeStyle=orthogonalEdgeStyle;exitX=0.5;exitY=1;exitDx=0;exitDy=0;entryX=0.5;entryY=0;entryDx=0;entryDy=0;" parent="WIyWlLk6GJQsqaUBKTNV-1" source="tKU6dCxfrQ4JnQ1JSD5g-14" target="JAkaeRWWvgfqJCWsta18-1" edge="1">
          <mxGeometry y="20" relative="1" as="geometry">
            <mxPoint as="offset" />
            <mxPoint x="254" y="310" as="sourcePoint" />
            <mxPoint x="253.75" y="360" as="targetPoint" />
          </mxGeometry>
        </mxCell>
        <mxCell id="tKU6dCxfrQ4JnQ1JSD5g-20" value="" style="rounded=0;html=1;jettySize=auto;orthogonalLoop=1;fontSize=11;endArrow=block;endFill=0;endSize=8;strokeWidth=1;shadow=0;labelBackgroundColor=none;edgeStyle=orthogonalEdgeStyle;exitX=0.5;exitY=1;exitDx=0;exitDy=0;entryX=0.5;entryY=0;entryDx=0;entryDy=0;" parent="WIyWlLk6GJQsqaUBKTNV-1" edge="1">
          <mxGeometry y="20" relative="1" as="geometry">
            <mxPoint as="offset" />
            <mxPoint x="249.71" y="920" as="sourcePoint" />
            <mxPoint x="249.71" y="970" as="targetPoint" />
          </mxGeometry>
        </mxCell>
        <mxCell id="tKU6dCxfrQ4JnQ1JSD5g-22" value="Sí" style="edgeLabel;html=1;align=center;verticalAlign=middle;resizable=0;points=[];" parent="tKU6dCxfrQ4JnQ1JSD5g-20" vertex="1" connectable="0">
          <mxGeometry x="-0.3943" y="2" relative="1" as="geometry">
            <mxPoint x="8" as="offset" />
          </mxGeometry>
        </mxCell>
        <mxCell id="tKU6dCxfrQ4JnQ1JSD5g-21" value="Confirmar (envía notificación)" style="rounded=1;whiteSpace=wrap;html=1;fontSize=12;glass=0;strokeWidth=1;shadow=0;" parent="WIyWlLk6GJQsqaUBKTNV-1" vertex="1">
          <mxGeometry x="190" y="970" width="120" height="40" as="geometry" />
        </mxCell>
        <mxCell id="tKU6dCxfrQ4JnQ1JSD5g-23" value="No" style="rounded=0;html=1;jettySize=auto;orthogonalLoop=1;fontSize=11;endArrow=block;endFill=0;endSize=8;strokeWidth=1;shadow=0;labelBackgroundColor=none;edgeStyle=orthogonalEdgeStyle;exitX=1;exitY=0.5;exitDx=0;exitDy=0;entryX=0.5;entryY=1;entryDx=0;entryDy=0;" parent="WIyWlLk6GJQsqaUBKTNV-1" source="JAkaeRWWvgfqJCWsta18-13" target="JAkaeRWWvgfqJCWsta18-18" edge="1">
          <mxGeometry x="-0.9512" y="20" relative="1" as="geometry">
            <mxPoint as="offset" />
            <mxPoint x="300" y="880" as="sourcePoint" />
            <mxPoint x="329.71000000000004" y="920" as="targetPoint" />
            <Array as="points">
              <mxPoint x="530" y="890" />
            </Array>
          </mxGeometry>
        </mxCell>
        <mxCell id="tKU6dCxfrQ4JnQ1JSD5g-25" value="FIN" style="rounded=1;whiteSpace=wrap;html=1;fontSize=12;glass=0;strokeWidth=1;shadow=0;" parent="WIyWlLk6GJQsqaUBKTNV-1" vertex="1">
          <mxGeometry x="190" y="1055" width="120" height="40" as="geometry" />
        </mxCell>
        <mxCell id="tKU6dCxfrQ4JnQ1JSD5g-26" value="" style="rounded=0;html=1;jettySize=auto;orthogonalLoop=1;fontSize=11;endArrow=block;endFill=0;endSize=8;strokeWidth=1;shadow=0;labelBackgroundColor=none;edgeStyle=orthogonalEdgeStyle;exitX=0.5;exitY=1;exitDx=0;exitDy=0;entryX=0.5;entryY=0;entryDx=0;entryDy=0;" parent="WIyWlLk6GJQsqaUBKTNV-1" source="tKU6dCxfrQ4JnQ1JSD5g-21" target="tKU6dCxfrQ4JnQ1JSD5g-25" edge="1">
          <mxGeometry y="20" relative="1" as="geometry">
            <mxPoint as="offset" />
            <mxPoint x="249.71" y="1025" as="sourcePoint" />
            <mxPoint x="249.71" y="1075" as="targetPoint" />
          </mxGeometry>
        </mxCell>
        <mxCell id="tKU6dCxfrQ4JnQ1JSD5g-27" value="Mensaje de error" style="rounded=1;whiteSpace=wrap;html=1;fontSize=12;glass=0;strokeWidth=1;shadow=0;" parent="WIyWlLk6GJQsqaUBKTNV-1" vertex="1">
          <mxGeometry x="340" y="970" width="120" height="40" as="geometry" />
        </mxCell>
        <mxCell id="tKU6dCxfrQ4JnQ1JSD5g-28" value="" style="rounded=0;html=1;jettySize=auto;orthogonalLoop=1;fontSize=11;endArrow=block;endFill=0;endSize=8;strokeWidth=1;shadow=0;labelBackgroundColor=none;edgeStyle=orthogonalEdgeStyle;exitX=0.5;exitY=1;exitDx=0;exitDy=0;entryX=1;entryY=0.25;entryDx=0;entryDy=0;" parent="WIyWlLk6GJQsqaUBKTNV-1" source="tKU6dCxfrQ4JnQ1JSD5g-27" target="tKU6dCxfrQ4JnQ1JSD5g-25" edge="1">
          <mxGeometry y="20" relative="1" as="geometry">
            <mxPoint as="offset" />
            <mxPoint x="370" y="1055" as="sourcePoint" />
            <mxPoint x="470" y="1145" as="targetPoint" />
          </mxGeometry>
        </mxCell>
        <mxCell id="tKU6dCxfrQ4JnQ1JSD5g-29" value="Mostrar datos" style="rounded=1;whiteSpace=wrap;html=1;fontSize=12;glass=0;strokeWidth=1;shadow=0;" parent="WIyWlLk6GJQsqaUBKTNV-1" vertex="1">
          <mxGeometry x="670" y="270" width="120" height="40" as="geometry" />
        </mxCell>
        <mxCell id="tKU6dCxfrQ4JnQ1JSD5g-30" value="" style="rounded=0;html=1;jettySize=auto;orthogonalLoop=1;fontSize=11;endArrow=block;endFill=0;endSize=8;strokeWidth=1;shadow=0;labelBackgroundColor=none;edgeStyle=orthogonalEdgeStyle;exitX=0.5;exitY=1;exitDx=0;exitDy=0;entryX=0.5;entryY=0;entryDx=0;entryDy=0;" parent="WIyWlLk6GJQsqaUBKTNV-1" source="tKU6dCxfrQ4JnQ1JSD5g-29" target="tKU6dCxfrQ4JnQ1JSD5g-31" edge="1">
          <mxGeometry y="20" relative="1" as="geometry">
            <mxPoint as="offset" />
            <mxPoint x="850" y="450" as="sourcePoint" />
            <mxPoint x="850" y="510" as="targetPoint" />
          </mxGeometry>
        </mxCell>
        <mxCell id="tKU6dCxfrQ4JnQ1JSD5g-31" value="Editar" style="rounded=1;whiteSpace=wrap;html=1;fontSize=12;glass=0;strokeWidth=1;shadow=0;" parent="WIyWlLk6GJQsqaUBKTNV-1" vertex="1">
          <mxGeometry x="670" y="350" width="120" height="40" as="geometry" />
        </mxCell>
        <mxCell id="tKU6dCxfrQ4JnQ1JSD5g-32" value="" style="rounded=0;html=1;jettySize=auto;orthogonalLoop=1;fontSize=11;endArrow=block;endFill=0;endSize=8;strokeWidth=1;shadow=0;labelBackgroundColor=none;edgeStyle=orthogonalEdgeStyle;exitX=0.5;exitY=1;exitDx=0;exitDy=0;entryX=1;entryY=0.5;entryDx=0;entryDy=0;" parent="WIyWlLk6GJQsqaUBKTNV-1" source="tKU6dCxfrQ4JnQ1JSD5g-31" target="tKU6dCxfrQ4JnQ1JSD5g-29" edge="1">
          <mxGeometry y="20" relative="1" as="geometry">
            <mxPoint as="offset" />
            <mxPoint x="840" y="310" as="sourcePoint" />
            <mxPoint x="840" y="350" as="targetPoint" />
            <Array as="points">
              <mxPoint x="730" y="410" />
              <mxPoint x="810" y="410" />
              <mxPoint x="810" y="290" />
            </Array>
          </mxGeometry>
        </mxCell>
        <mxCell id="tKU6dCxfrQ4JnQ1JSD5g-33" value="" style="rounded=0;html=1;jettySize=auto;orthogonalLoop=1;fontSize=11;endArrow=block;endFill=0;endSize=8;strokeWidth=1;shadow=0;labelBackgroundColor=none;edgeStyle=orthogonalEdgeStyle;exitX=0;exitY=0.5;exitDx=0;exitDy=0;entryX=1;entryY=0.75;entryDx=0;entryDy=0;" parent="WIyWlLk6GJQsqaUBKTNV-1" source="tKU6dCxfrQ4JnQ1JSD5g-31" target="tKU6dCxfrQ4JnQ1JSD5g-25" edge="1">
          <mxGeometry y="20" relative="1" as="geometry">
            <mxPoint as="offset" />
            <mxPoint x="670" y="410" as="sourcePoint" />
            <mxPoint x="484" y="660" as="targetPoint" />
            <Array as="points">
              <mxPoint x="640" y="370" />
              <mxPoint x="640" y="1085" />
            </Array>
          </mxGeometry>
        </mxCell>
        <mxCell id="tKU6dCxfrQ4JnQ1JSD5g-34" value="" style="triangle;whiteSpace=wrap;html=1;rotation=90;" parent="WIyWlLk6GJQsqaUBKTNV-1" vertex="1">
          <mxGeometry x="349" y="60" width="10" height="20" as="geometry" />
        </mxCell>
        <mxCell id="JAkaeRWWvgfqJCWsta18-1" value="Buscar hospedajes&lt;div&gt;según pack&lt;/div&gt;" style="rounded=1;whiteSpace=wrap;html=1;fontSize=12;glass=0;strokeWidth=1;shadow=0;" vertex="1" parent="WIyWlLk6GJQsqaUBKTNV-1">
          <mxGeometry x="184" y="310" width="120" height="40" as="geometry" />
        </mxCell>
        <mxCell id="JAkaeRWWvgfqJCWsta18-2" value="" style="rounded=0;html=1;jettySize=auto;orthogonalLoop=1;fontSize=11;endArrow=block;endFill=0;endSize=8;strokeWidth=1;shadow=0;labelBackgroundColor=none;edgeStyle=orthogonalEdgeStyle;exitX=0.5;exitY=1;exitDx=0;exitDy=0;entryX=0.5;entryY=0;entryDx=0;entryDy=0;" edge="1" parent="WIyWlLk6GJQsqaUBKTNV-1" source="JAkaeRWWvgfqJCWsta18-1">
          <mxGeometry y="20" relative="1" as="geometry">
            <mxPoint as="offset" />
            <mxPoint x="430" y="320" as="sourcePoint" />
            <mxPoint x="245" y="380" as="targetPoint" />
          </mxGeometry>
        </mxCell>
        <mxCell id="JAkaeRWWvgfqJCWsta18-4" value="" style="rounded=0;html=1;jettySize=auto;orthogonalLoop=1;fontSize=11;endArrow=block;endFill=0;endSize=8;strokeWidth=1;shadow=0;labelBackgroundColor=none;edgeStyle=orthogonalEdgeStyle;exitX=0;exitY=0.5;exitDx=0;exitDy=0;entryX=0.5;entryY=0;entryDx=0;entryDy=0;" edge="1" parent="WIyWlLk6GJQsqaUBKTNV-1" target="JAkaeRWWvgfqJCWsta18-8">
          <mxGeometry y="20" relative="1" as="geometry">
            <mxPoint as="offset" />
            <mxPoint x="180" y="420" as="sourcePoint" />
            <mxPoint x="126" y="530" as="targetPoint" />
            <Array as="points">
              <mxPoint x="100" y="420" />
              <mxPoint x="100" y="483" />
              <mxPoint x="244" y="483" />
            </Array>
          </mxGeometry>
        </mxCell>
        <mxCell id="JAkaeRWWvgfqJCWsta18-5" value="Sí" style="edgeLabel;html=1;align=center;verticalAlign=middle;resizable=0;points=[];" vertex="1" connectable="0" parent="JAkaeRWWvgfqJCWsta18-4">
          <mxGeometry x="-0.3943" y="2" relative="1" as="geometry">
            <mxPoint x="77" y="-33" as="offset" />
          </mxGeometry>
        </mxCell>
        <mxCell id="JAkaeRWWvgfqJCWsta18-6" value="" style="rounded=0;html=1;jettySize=auto;orthogonalLoop=1;fontSize=11;endArrow=block;endFill=0;endSize=8;strokeWidth=1;shadow=0;labelBackgroundColor=none;edgeStyle=orthogonalEdgeStyle;exitX=1;exitY=0.5;exitDx=0;exitDy=0;entryX=0;entryY=0;entryDx=0;entryDy=0;" edge="1" parent="WIyWlLk6GJQsqaUBKTNV-1" target="JAkaeRWWvgfqJCWsta18-18">
          <mxGeometry y="20" relative="1" as="geometry">
            <mxPoint as="offset" />
            <mxPoint x="310" y="420" as="sourcePoint" />
            <mxPoint x="330" y="470" as="targetPoint" />
            <Array as="points">
              <mxPoint x="480" y="420" />
            </Array>
          </mxGeometry>
        </mxCell>
        <mxCell id="JAkaeRWWvgfqJCWsta18-7" value="No" style="edgeLabel;html=1;align=center;verticalAlign=middle;resizable=0;points=[];" vertex="1" connectable="0" parent="JAkaeRWWvgfqJCWsta18-6">
          <mxGeometry x="-0.3943" y="2" relative="1" as="geometry">
            <mxPoint x="-97" y="-8" as="offset" />
          </mxGeometry>
        </mxCell>
        <mxCell id="JAkaeRWWvgfqJCWsta18-8" value="&lt;font style=&quot;font-size: 11px;&quot;&gt;¿Cumple requisito movilidad?&lt;/font&gt;" style="rhombus;whiteSpace=wrap;html=1;shadow=0;fontFamily=Helvetica;fontSize=12;align=center;strokeWidth=1;spacing=6;spacingTop=-4;" vertex="1" parent="WIyWlLk6GJQsqaUBKTNV-1">
          <mxGeometry x="169" y="530" width="150" height="80" as="geometry" />
        </mxCell>
        <mxCell id="JAkaeRWWvgfqJCWsta18-9" value="&lt;span style=&quot;font-size: 11px;&quot;&gt;¿Cumple requisito&amp;nbsp;&lt;/span&gt;&lt;span style=&quot;font-size: 11px; background-color: transparent; color: light-dark(rgb(0, 0, 0), rgb(255, 255, 255));&quot;&gt;mascota?&lt;/span&gt;" style="rhombus;whiteSpace=wrap;html=1;shadow=0;fontFamily=Helvetica;fontSize=12;align=center;strokeWidth=1;spacing=6;spacingTop=-4;" vertex="1" parent="WIyWlLk6GJQsqaUBKTNV-1">
          <mxGeometry x="169" y="680" width="150" height="60" as="geometry" />
        </mxCell>
        <mxCell id="JAkaeRWWvgfqJCWsta18-10" value="" style="rounded=0;html=1;jettySize=auto;orthogonalLoop=1;fontSize=11;endArrow=block;endFill=0;endSize=8;strokeWidth=1;shadow=0;labelBackgroundColor=none;edgeStyle=orthogonalEdgeStyle;exitX=0;exitY=0.5;exitDx=0;exitDy=0;entryX=0.5;entryY=0;entryDx=0;entryDy=0;" edge="1" parent="WIyWlLk6GJQsqaUBKTNV-1" source="JAkaeRWWvgfqJCWsta18-8" target="JAkaeRWWvgfqJCWsta18-9">
          <mxGeometry y="20" relative="1" as="geometry">
            <mxPoint as="offset" />
            <mxPoint x="100" y="550" as="sourcePoint" />
            <mxPoint x="244" y="670" as="targetPoint" />
            <Array as="points">
              <mxPoint x="120" y="570" />
              <mxPoint x="120" y="630" />
              <mxPoint x="244" y="630" />
            </Array>
          </mxGeometry>
        </mxCell>
        <mxCell id="JAkaeRWWvgfqJCWsta18-11" value="Sí" style="edgeLabel;html=1;align=center;verticalAlign=middle;resizable=0;points=[];" vertex="1" connectable="0" parent="JAkaeRWWvgfqJCWsta18-10">
          <mxGeometry x="-0.3943" y="2" relative="1" as="geometry">
            <mxPoint x="38" y="-57" as="offset" />
          </mxGeometry>
        </mxCell>
        <mxCell id="JAkaeRWWvgfqJCWsta18-12" value="Añadir hospedaje&lt;div&gt;a la reserva&lt;/div&gt;" style="rounded=1;whiteSpace=wrap;html=1;fontSize=12;glass=0;strokeWidth=1;shadow=0;" vertex="1" parent="WIyWlLk6GJQsqaUBKTNV-1">
          <mxGeometry x="185" y="780" width="120" height="40" as="geometry" />
        </mxCell>
        <mxCell id="JAkaeRWWvgfqJCWsta18-13" value="&lt;font style=&quot;font-size: 11px;&quot;&gt;¿Hospedajes necesarios&amp;nbsp;&lt;/font&gt;&lt;div&gt;&lt;font style=&quot;font-size: 11px;&quot;&gt;reservados?&lt;/font&gt;&lt;/div&gt;" style="rhombus;whiteSpace=wrap;html=1;shadow=0;fontFamily=Helvetica;fontSize=12;align=center;strokeWidth=1;spacing=6;spacingTop=-4;" vertex="1" parent="WIyWlLk6GJQsqaUBKTNV-1">
          <mxGeometry x="150" y="850" width="200" height="80" as="geometry" />
        </mxCell>
        <mxCell id="JAkaeRWWvgfqJCWsta18-14" value="" style="rounded=0;html=1;jettySize=auto;orthogonalLoop=1;fontSize=11;endArrow=block;endFill=0;endSize=8;strokeWidth=1;shadow=0;labelBackgroundColor=none;edgeStyle=orthogonalEdgeStyle;exitX=0;exitY=0.5;exitDx=0;exitDy=0;entryX=0;entryY=0.5;entryDx=0;entryDy=0;" edge="1" parent="WIyWlLk6GJQsqaUBKTNV-1" source="JAkaeRWWvgfqJCWsta18-9" target="JAkaeRWWvgfqJCWsta18-12">
          <mxGeometry y="20" relative="1" as="geometry">
            <mxPoint as="offset" />
            <mxPoint x="50" y="730" as="sourcePoint" />
            <mxPoint x="140" y="660" as="targetPoint" />
            <Array as="points">
              <mxPoint x="140" y="710" />
              <mxPoint x="140" y="800" />
            </Array>
          </mxGeometry>
        </mxCell>
        <mxCell id="JAkaeRWWvgfqJCWsta18-15" value="Sí" style="edgeLabel;html=1;align=center;verticalAlign=middle;resizable=0;points=[];" vertex="1" connectable="0" parent="JAkaeRWWvgfqJCWsta18-14">
          <mxGeometry x="-0.3943" y="2" relative="1" as="geometry">
            <mxPoint x="27" y="-41" as="offset" />
          </mxGeometry>
        </mxCell>
        <mxCell id="JAkaeRWWvgfqJCWsta18-16" value="" style="rounded=0;html=1;jettySize=auto;orthogonalLoop=1;fontSize=11;endArrow=block;endFill=0;endSize=8;strokeWidth=1;shadow=0;labelBackgroundColor=none;edgeStyle=orthogonalEdgeStyle;exitX=0.5;exitY=1;exitDx=0;exitDy=0;entryX=0.5;entryY=0;entryDx=0;entryDy=0;" edge="1" parent="WIyWlLk6GJQsqaUBKTNV-1" source="JAkaeRWWvgfqJCWsta18-12" target="JAkaeRWWvgfqJCWsta18-13">
          <mxGeometry y="20" relative="1" as="geometry">
            <mxPoint as="offset" />
            <mxPoint x="330.00000000000006" y="810" as="sourcePoint" />
            <mxPoint x="330.00000000000006" y="860" as="targetPoint" />
          </mxGeometry>
        </mxCell>
        <mxCell id="JAkaeRWWvgfqJCWsta18-18" value="&lt;span style=&quot;font-size: 11px;&quot;&gt;¿Quedan hospedajes?&lt;/span&gt;" style="rhombus;whiteSpace=wrap;html=1;shadow=0;fontFamily=Helvetica;fontSize=12;align=center;strokeWidth=1;spacing=6;spacingTop=-4;" vertex="1" parent="WIyWlLk6GJQsqaUBKTNV-1">
          <mxGeometry x="430" y="580" width="200" height="80" as="geometry" />
        </mxCell>
        <mxCell id="JAkaeRWWvgfqJCWsta18-19" value="" style="rounded=0;html=1;jettySize=auto;orthogonalLoop=1;fontSize=11;endArrow=block;endFill=0;endSize=8;strokeWidth=1;shadow=0;labelBackgroundColor=none;edgeStyle=orthogonalEdgeStyle;exitX=0.5;exitY=0;exitDx=0;exitDy=0;entryX=1;entryY=0.5;entryDx=0;entryDy=0;" edge="1" parent="WIyWlLk6GJQsqaUBKTNV-1" source="JAkaeRWWvgfqJCWsta18-18" target="JAkaeRWWvgfqJCWsta18-1">
          <mxGeometry y="20" relative="1" as="geometry">
            <mxPoint as="offset" />
            <mxPoint x="399.71000000000004" y="700" as="sourcePoint" />
            <mxPoint x="410" y="410" as="targetPoint" />
            <Array as="points">
              <mxPoint x="530" y="330" />
            </Array>
          </mxGeometry>
        </mxCell>
        <mxCell id="JAkaeRWWvgfqJCWsta18-20" value="Sí" style="edgeLabel;html=1;align=center;verticalAlign=middle;resizable=0;points=[];" vertex="1" connectable="0" parent="JAkaeRWWvgfqJCWsta18-19">
          <mxGeometry x="-0.3943" y="2" relative="1" as="geometry">
            <mxPoint x="12" y="105" as="offset" />
          </mxGeometry>
        </mxCell>
        <mxCell id="JAkaeRWWvgfqJCWsta18-21" value="No" style="rounded=0;html=1;jettySize=auto;orthogonalLoop=1;fontSize=11;endArrow=block;endFill=0;endSize=8;strokeWidth=1;shadow=0;labelBackgroundColor=none;edgeStyle=orthogonalEdgeStyle;exitX=1;exitY=1;exitDx=0;exitDy=0;entryX=1;entryY=0.5;entryDx=0;entryDy=0;" edge="1" parent="WIyWlLk6GJQsqaUBKTNV-1" source="JAkaeRWWvgfqJCWsta18-18" target="tKU6dCxfrQ4JnQ1JSD5g-27">
          <mxGeometry x="-0.9574" y="10" relative="1" as="geometry">
            <mxPoint as="offset" />
            <mxPoint x="450" y="950" as="sourcePoint" />
            <mxPoint x="570" y="900" as="targetPoint" />
            <Array as="points">
              <mxPoint x="580" y="990" />
            </Array>
          </mxGeometry>
        </mxCell>
        <mxCell id="JAkaeRWWvgfqJCWsta18-22" value="" style="rounded=0;html=1;jettySize=auto;orthogonalLoop=1;fontSize=11;endArrow=block;endFill=0;endSize=8;strokeWidth=1;shadow=0;labelBackgroundColor=none;edgeStyle=orthogonalEdgeStyle;exitX=1;exitY=0.5;exitDx=0;exitDy=0;entryX=0;entryY=0.5;entryDx=0;entryDy=0;" edge="1" parent="WIyWlLk6GJQsqaUBKTNV-1" source="JAkaeRWWvgfqJCWsta18-8" target="JAkaeRWWvgfqJCWsta18-18">
          <mxGeometry y="20" relative="1" as="geometry">
            <mxPoint as="offset" />
            <mxPoint x="330" y="540" as="sourcePoint" />
            <mxPoint x="294" y="470" as="targetPoint" />
            <Array as="points">
              <mxPoint x="340" y="570" />
              <mxPoint x="340" y="620" />
            </Array>
          </mxGeometry>
        </mxCell>
        <mxCell id="JAkaeRWWvgfqJCWsta18-23" value="No" style="edgeLabel;html=1;align=center;verticalAlign=middle;resizable=0;points=[];" vertex="1" connectable="0" parent="JAkaeRWWvgfqJCWsta18-22">
          <mxGeometry x="-0.3943" y="2" relative="1" as="geometry">
            <mxPoint x="-32" y="-48" as="offset" />
          </mxGeometry>
        </mxCell>
        <mxCell id="JAkaeRWWvgfqJCWsta18-24" value="" style="rounded=0;html=1;jettySize=auto;orthogonalLoop=1;fontSize=11;endArrow=block;endFill=0;endSize=8;strokeWidth=1;shadow=0;labelBackgroundColor=none;edgeStyle=orthogonalEdgeStyle;exitX=1;exitY=0.5;exitDx=0;exitDy=0;entryX=0;entryY=1;entryDx=0;entryDy=0;" edge="1" parent="WIyWlLk6GJQsqaUBKTNV-1" source="JAkaeRWWvgfqJCWsta18-9" target="JAkaeRWWvgfqJCWsta18-18">
          <mxGeometry y="20" relative="1" as="geometry">
            <mxPoint as="offset" />
            <mxPoint x="374" y="740" as="sourcePoint" />
            <mxPoint x="350" y="522" as="targetPoint" />
            <Array as="points">
              <mxPoint x="340" y="710" />
              <mxPoint x="340" y="840" />
              <mxPoint x="480" y="840" />
            </Array>
          </mxGeometry>
        </mxCell>
        <mxCell id="JAkaeRWWvgfqJCWsta18-25" value="No" style="edgeLabel;html=1;align=center;verticalAlign=middle;resizable=0;points=[];" vertex="1" connectable="0" parent="JAkaeRWWvgfqJCWsta18-24">
          <mxGeometry x="-0.3943" y="2" relative="1" as="geometry">
            <mxPoint x="-32" y="-148" as="offset" />
          </mxGeometry>
        </mxCell>
        <mxCell id="JAkaeRWWvgfqJCWsta18-26" value="&lt;span style=&quot;font-size: 11px;&quot;&gt;¿Disponible?&lt;/span&gt;" style="rhombus;whiteSpace=wrap;html=1;shadow=0;fontFamily=Helvetica;fontSize=12;align=center;strokeWidth=1;spacing=6;spacingTop=-4;" vertex="1" parent="WIyWlLk6GJQsqaUBKTNV-1">
          <mxGeometry x="180" y="380" width="130" height="80" as="geometry" />
        </mxCell>
      </root>
    </mxGraphModel>
  </diagram>
</mxfile>
